<?xml version="1.0" encoding="utf-8"?>
<!-- Generator: Adobe Illustrator 24.0.2, SVG Export Plug-In . SVG Version: 6.00 Build 0)  -->
<svg version="1.1" id="Capa_1" xmlns="http://www.w3.org/2000/svg" xmlns:xlink="http://www.w3.org/1999/xlink" x="0px" y="0px"
	 viewBox="0 0 512 512" style="enable-background:new 0 0 512 512;" xml:space="preserve">
<style type="text/css">
	.st0{fill:#FFFFFF;}
</style>
<g>
	<path class="st0" d="M66,502c0,5.5,4.5,10,10,10h360c5.5,0,10-4.5,10-10s-4.5-10-10-10H323c15.7-9.9,30.2-23.3,43-40h10
		c54.9,0,99.6-44.2,100-99.2c0.2-22.4-17.6-40.8-40-40.8h-20.7c0.4-6.6,0.7-13.3,0.7-20c0-5.5-4.5-10-10-10H301c-5.5,0-10,4.5-10,10
		s4.5,10,10,10h94.8c-0.2,6.4-0.7,12.7-1.3,19c0,0,0,0,0,0c-8.4,82.5-59,171-138.5,171c-74.9,0-136.2-84.3-139.8-190H211
		c5.5,0,10-4.5,10-10s-4.5-10-10-10H106c-5.5,0-10,4.5-10,10c0,97.1,43.7,168.9,93,200H76C70.5,492,66,496.5,66,502z M456,352.6
		c-0.3,42.6-34.3,77.4-76.4,79.3c17.2-28.7,28.9-63.3,33.8-99.9H436C447.3,332,456.1,341.5,456,352.6z"/>
	<path class="st0" d="M40,140h26v20c0,3.5,1.8,6.7,4.7,8.5c2.9,1.8,6.6,2,9.7,0.4l57.9-28.9H196c22.1,0,40-17.9,40-40V40
		c0-22.1-17.9-40-40-40H40C17.9,0,0,17.9,0,40v60C0,122.1,17.9,140,40,140z M20,40c0-11,9-20,20-20h156c11,0,20,9,20,20v60
		c0,11-9,20-20,20h-60c-1.6,0-3.1,0.4-4.5,1.1L86,143.8V130c0-5.5-4.5-10-10-10H40c-11,0-20-9-20-20V40z"/>
	<path class="st0" d="M316,200h57.6l57.9,28.9c3.1,1.6,6.8,1.4,9.7-0.4c2.9-1.8,4.7-5,4.7-8.5v-20h26c22.1,0,40-17.9,40-40v-60
		c0-22.1-17.9-40-40-40H316c-22.1,0-40,17.9-40,40v60C276,182.1,293.9,200,316,200z M296,100c0-11,9-20,20-20h156c11,0,20,9,20,20
		v60c0,11-9,20-20,20h-36c-5.5,0-10,4.5-10,10v13.8l-45.5-22.8c-1.4-0.7-2.9-1.1-4.5-1.1h-60c-11,0-20-9-20-20V100z"/>
	<path class="st0" d="M76,80h90c5.5,0,10-4.5,10-10s-4.5-10-10-10H76c-5.5,0-10,4.5-10,10S70.5,80,76,80z"/>
	<path class="st0" d="M346,140h90c5.5,0,10-4.5,10-10c0-5.5-4.5-10-10-10h-90c-5.5,0-10,4.5-10,10S340.5,140,346,140z"/>
	<circle class="st0" cx="256" cy="292" r="10"/>
</g>
</svg>
