<?xml version="1.0"?>
<svg xmlns="http://www.w3.org/2000/svg" id="Outline" viewBox="0 0 512 512" width="512" height="512"><path d="M200,239.865V24a8,8,0,0,0-8-8c-16.054,0-29.774,11.161-40.78,33.172-7.954,15.908-14.707,37.875-20.071,65.292-9.012,46.059-11.059,91.286-11.142,93.188a8,8,0,0,0,6.053,8.109L152,222.246v17.619l-7.987,231.356a23.631,23.631,0,0,0,6.714,17.34A24.32,24.32,0,0,0,168.357,496h15.286a24.32,24.32,0,0,0,17.63-7.439,23.636,23.636,0,0,0,6.713-17.353Zm-63.639-38.021c.9-14.184,3.664-49.42,10.49-84.308,9.19-46.971,22.18-75.971,37.149-83.546V232H168V216a8,8,0,0,0-6.06-7.761Zm53.413,275.591A8.445,8.445,0,0,1,183.643,480H168.357a8.445,8.445,0,0,1-6.131-2.565A7.756,7.756,0,0,1,160,471.761L167.729,248h16.542L192,471.748A7.765,7.765,0,0,1,189.774,477.435Z"/><path d="M409.705,86.3A238.427,238.427,0,0,0,240,16a8,8,0,0,0-8,8V56a8,8,0,0,0,16,0V32.14a222.476,222.476,0,0,1,97.048,25.913L334.686,76a8,8,0,1,0,13.855,8L358.89,66.076a226.771,226.771,0,0,1,71.039,71.031L412,147.459a8,8,0,1,0,8,13.855l17.955-10.366A222.5,222.5,0,0,1,463.844,248H440a8,8,0,0,0,0,16h23.844a222.5,222.5,0,0,1-25.889,97.052L420,350.686a8,8,0,1,0-8,13.855l17.929,10.352a226.9,226.9,0,0,1-71.035,71.036l-9.966-17.262a8,8,0,0,0-13.858,8l9.981,17.288A222.5,222.5,0,0,1,248,479.844V456a8,8,0,0,0-16,0v32a8,8,0,0,0,8,8A240,240,0,0,0,409.705,86.3Z"/><path d="M240,320h48a8,8,0,0,0,0-16H248V277.766l42.53-14.176A8,8,0,0,0,296,256V216a8,8,0,0,0-8-8H240a8,8,0,0,0,0,16h40v26.234L237.47,264.41A8,8,0,0,0,232,272v40A8,8,0,0,0,240,320Z"/><path d="M320,208a8,8,0,0,0-8,8v40a8,8,0,0,0,8,8h40v48a8,8,0,0,0,16,0V264h8a8,8,0,0,0,0-16h-8V216a8,8,0,0,0-16,0v32H328V216A8,8,0,0,0,320,208Z"/><path d="M104,16a8,8,0,0,0-8,8v80H80V24a8,8,0,0,0-16,0v80H48V24a8,8,0,0,0-16,0V136.446a40.2,40.2,0,0,0,4.223,17.889l11.726,23.451L40.013,471.221a23.631,23.631,0,0,0,6.714,17.34A24.32,24.32,0,0,0,64.357,496H79.643a24.32,24.32,0,0,0,17.63-7.439,23.6,23.6,0,0,0,6.715-17.292L96.051,177.786l11.726-23.451A40.2,40.2,0,0,0,112,136.446V24A8,8,0,0,0,104,16ZM93.466,147.179,83.056,168H60.944l-10.41-20.821A24.117,24.117,0,0,1,48,136.446V120H96v16.446A24.117,24.117,0,0,1,93.466,147.179ZM85.774,477.435A8.445,8.445,0,0,1,79.643,480H64.357a8.445,8.445,0,0,1-6.131-2.565,7.79,7.79,0,0,1-2.22-5.735L63.787,184H80.213L88,471.748A7.765,7.765,0,0,1,85.774,477.435Z"/></svg>
