<?xml version="1.0" encoding="utf-8"?>
<!-- Generator: Adobe Illustrator 24.0.2, SVG Export Plug-In . SVG Version: 6.00 Build 0)  -->
<svg version="1.1" id="Calque_1" xmlns="http://www.w3.org/2000/svg" xmlns:xlink="http://www.w3.org/1999/xlink" x="0px" y="0px"
	 viewBox="0 0 512 512" style="enable-background:new 0 0 512 512;" xml:space="preserve">
<style type="text/css">
	.st0{fill:#FFFFFF;}
</style>
<g>
	<path class="st0" d="M93.7,19C52.5,19,19,63.1,19,117.3c0,42.7,20.8,80.2,51.2,93.3l-6.8,251.3C63,478.6,76.2,492.5,93,492.9
		s30.7-12.8,31.1-29.6c0-0.5,0-1,0-1.6l-6.8-251.3c30.4-13.1,51.2-50.6,51.2-93.3C168.5,63.1,135,19,93.7,19z M107.9,199.2
		c-2.9,1-4.9,3.8-4.8,6.8l6.9,256.2c0.2,9-6.9,16.6-15.9,16.8c-9,0.2-16.6-6.9-16.8-15.9c0-0.3,0-0.6,0-0.9L84.3,206
		c0.1-3.1-1.9-5.8-4.8-6.8C52.1,190,33,156.3,33,117.3C33,70.8,60.3,33,93.7,33s60.8,37.8,60.8,84.3
		C154.5,156.3,135.4,190,107.9,199.2z"/>
	<path class="st0" d="M273.3,19.3c-9.2-1.6-18.2,3.7-21.1,12.6c-20,58.5-44.3,154.7-46.9,281.2c-0.1,2.6,1.3,5,3.6,6.3l27.8,15.2
		l-8.1,126.1c-1.1,16.7,11.6,31.1,28.3,32.2s31.1-11.6,32.2-28.3c0-0.7,0.1-1.3,0.1-2V38C289.3,28.7,282.5,20.7,273.3,19.3z
		 M275.2,462.7c0,9-7.3,16.3-16.3,16.3c-9,0-16.3-7.3-16.3-16.3c0-0.3,0-0.7,0-1l8.4-130.6c0.2-2.7-1.2-5.3-3.6-6.6l-27.9-15.3
		c3-122.6,26.6-215.9,46-272.7c0.9-2.6,3.7-4,6.3-3.1c2,0.7,3.4,2.6,3.4,4.7V462.7z"/>
	<path class="st0" d="M486,19c-3.9,0-7,3.1-7,7c0,0,0,0,0,0v114.8c0,27.9-18.9,52.2-46,58.9c-3.2,0.8-5.4,3.7-5.3,7l6.9,255.5
		c0.3,9-6.8,16.6-15.9,16.9c-9,0.3-16.6-6.8-16.9-15.9c0-0.3,0-0.7,0-1l6.9-255.5c0.1-3.3-2.1-6.2-5.3-7c-27.1-6.7-46.1-31-46-58.9
		V26c0-3.9-3.1-7-7-7s-7,3.1-7,7v114.8c0,32.2,20.6,60.8,51.2,70.9l-6.8,250.1c-0.5,16.8,12.7,30.7,29.5,31.2
		c16.8,0.5,30.7-12.7,31.2-29.5c0-0.6,0-1.1,0-1.7l-6.8-250.1c30.6-10.1,51.2-38.7,51.2-70.9V26C493,22.1,489.9,19,486,19
		C486,19,486,19,486,19z"/>
	<path class="st0" d="M384.4,143.7c3.9,0,7-3.1,7-7c0,0,0,0,0,0V26c0-3.9-3.1-7-7-7s-7,3.1-7,7v110.7
		C377.4,140.5,380.5,143.7,384.4,143.7C384.4,143.7,384.4,143.7,384.4,143.7z"/>
	<path class="st0" d="M418.2,143.7c3.9,0,7-3.1,7-7V26c0-3.9-3.1-7-7-7s-7,3.1-7,7v110.7C411.2,140.5,414.4,143.7,418.2,143.7
		C418.2,143.7,418.2,143.7,418.2,143.7z"/>
	<path class="st0" d="M452.1,143.7c3.9,0,7-3.1,7-7c0,0,0,0,0,0V26c0-3.9-3.1-7-7-7s-7,3.1-7,7v110.7
		C445.1,140.5,448.2,143.7,452.1,143.7z"/>
</g>
</svg>
