<svg id="Calque_1" data-name="Calque 1" xmlns="http://www.w3.org/2000/svg" viewBox="0 0 266.76 71.32"><defs><style>.cls-1{fill:#fff;}.cls-2{fill:#e5eef9;}.cls-3{fill:#d5e3f4;}.cls-4{fill:#eee8d6;}.cls-5{fill:#cfccc0;}.cls-6{fill:#010202;}</style></defs><title>logo</title><path class="cls-1" d="M79.6,57.74v8A2.06,2.06,0,0,0,79.91,67a1.37,1.37,0,0,0,1.15.41v.4c-.4,0-.8,0-1.19,0s-.72,0-1.07,0a4.83,4.83,0,0,0-.93.21V65.78a3.26,3.26,0,0,1-3.15,2.3,3.09,3.09,0,0,1-1.17-.19,2.1,2.1,0,0,1-.83-.54,2,2,0,0,1-.5-1,7,7,0,0,1-.13-1.52V60a2.22,2.22,0,0,0-.31-1.28,1.38,1.38,0,0,0-1.15-.41V58c.41,0,.81.06,1.19.06A9.73,9.73,0,0,0,72.89,58a5.19,5.19,0,0,0,.93-.21v7.55a6.7,6.7,0,0,0,.07,1.1,1.32,1.32,0,0,0,.39.8,1.29,1.29,0,0,0,1,.31,2.24,2.24,0,0,0,1.86-1,4.1,4.1,0,0,0,.73-2.47v-4a2.22,2.22,0,0,0-.31-1.28,1.38,1.38,0,0,0-1.15-.41V58c.41,0,.81.06,1.19.06A9.73,9.73,0,0,0,78.67,58,5.35,5.35,0,0,0,79.6,57.74Z" transform="translate(0)"/><path class="cls-1" d="M90.41,57.69a3.42,3.42,0,0,1,1.22.19,2.45,2.45,0,0,1,.81.54,2.14,2.14,0,0,1,.52,1A6.75,6.75,0,0,1,93.12,61V66.1a1.39,1.39,0,0,0,.33,1.09,1.68,1.68,0,0,0,1.13.29v.4H90.12v-.4a1.31,1.31,0,0,0,1-.29,1.56,1.56,0,0,0,.29-1.09V60.55a5.85,5.85,0,0,0-.1-1.1,1.47,1.47,0,0,0-.43-.8,1.51,1.51,0,0,0-1-.31,2.32,2.32,0,0,0-2,1,4.12,4.12,0,0,0-.74,2.49v4.26a1.51,1.51,0,0,0,.29,1.09,1.3,1.3,0,0,0,1,.29v.4H84v-.4a1.67,1.67,0,0,0,1.12-.29,1.42,1.42,0,0,0,.34-1.09v-6a2.24,2.24,0,0,0-.31-1.28A1.41,1.41,0,0,0,84,58.4V58c.41,0,.8.06,1.19.06A9.55,9.55,0,0,0,86.23,58a5.19,5.19,0,0,0,.93-.21V60a3.28,3.28,0,0,1,1.4-1.81A3.74,3.74,0,0,1,90.41,57.69Z" transform="translate(0)"/><path class="cls-1" d="M102,57.69a3.51,3.51,0,0,1,2.64,1,4.69,4.69,0,0,1,1,3.2H98.82v-.36h5a6.37,6.37,0,0,0-.15-1.74,3.27,3.27,0,0,0-.6-1.28A1.38,1.38,0,0,0,102,58a2,2,0,0,0-1.57.88,5.3,5.3,0,0,0-.81,2.81l.06.08a3.36,3.36,0,0,0-.06.63v.69a5.42,5.42,0,0,0,.42,2.25,3.39,3.39,0,0,0,1.11,1.43,2.38,2.38,0,0,0,1.41.49,3,3,0,0,0,1.59-.43,3.16,3.16,0,0,0,1.23-1.49l.38.15a4,4,0,0,1-.69,1.23,3.6,3.6,0,0,1-2.9,1.34,4.2,4.2,0,0,1-2.37-.63,4,4,0,0,1-1.51-1.76,5.88,5.88,0,0,1-.53-2.58,7.12,7.12,0,0,1,.53-2.91,4.29,4.29,0,0,1,1.52-1.88A4.06,4.06,0,0,1,102,57.69Z" transform="translate(0)"/><path class="cls-1" d="M118.73,57.74V69.53a1.15,1.15,0,0,0,.49,1.11,2.77,2.77,0,0,0,1.36.28v.4l-1.18,0h-2.77l-.89,0v-.4a1.49,1.49,0,0,0,1-.25,1.23,1.23,0,0,0,.28-.94V60.05a2.31,2.31,0,0,0-.3-1.28,1.4,1.4,0,0,0-1.16-.41V58c.41,0,.81.06,1.19.06a9.73,9.73,0,0,0,1.07-.06A4.92,4.92,0,0,0,118.73,57.74Zm3.07-.05a3.22,3.22,0,0,1,2.55,1.22,5.46,5.46,0,0,1,1,3.54,8.18,8.18,0,0,1-.46,2.69,4.93,4.93,0,0,1-1.41,2.14,3.72,3.72,0,0,1-2.53.83,2.79,2.79,0,0,1-1.57-.42,2,2,0,0,1-.89-1l.19-.27a2.37,2.37,0,0,0,.78.91,2.43,2.43,0,0,0,3-.31,4.13,4.13,0,0,0,.83-1.8,12.79,12.79,0,0,0,.24-2.48,10.73,10.73,0,0,0-.25-2.52,3.05,3.05,0,0,0-.75-1.46,1.74,1.74,0,0,0-1.22-.48,2.35,2.35,0,0,0-1.71.78,3.92,3.92,0,0,0-1,2.35l-.23-.27a4.13,4.13,0,0,1,1.16-2.53,3.22,3.22,0,0,1,2.34-.92Z" transform="translate(0)"/><path class="cls-1" d="M133.42,57.69a3.47,3.47,0,0,1,2.64,1,4.67,4.67,0,0,1,.95,3.2h-6.78v-.36h5a7.27,7.27,0,0,0-.15-1.74,3.1,3.1,0,0,0-.61-1.28,1.37,1.37,0,0,0-1.06-.48,2,2,0,0,0-1.57.88,5.2,5.2,0,0,0-.82,2.81l.06.08a3.52,3.52,0,0,1-.06.63v.69a5.42,5.42,0,0,0,.42,2.25,3.37,3.37,0,0,0,1.1,1.43,2.38,2.38,0,0,0,1.41.49,3,3,0,0,0,1.6-.43,3.32,3.32,0,0,0,1.23-1.49l.38.15a4,4,0,0,1-.69,1.23,3.65,3.65,0,0,1-1.21,1,3.56,3.56,0,0,1-1.69.37,4.2,4.2,0,0,1-2.37-.63,4,4,0,0,1-1.52-1.76,5.88,5.88,0,0,1-.53-2.58,7,7,0,0,1,.54-2.91,4.23,4.23,0,0,1,1.52-1.88A4,4,0,0,1,133.42,57.69Z" transform="translate(0)"/><path class="cls-1" d="M143.48,54.77V58h2.85v.39h-2.85v7.43a1.85,1.85,0,0,0,.33,1.27,1.13,1.13,0,0,0,.9.36,1.27,1.27,0,0,0,1-.47,4.09,4.09,0,0,0,.73-1.58l.39.09a4.6,4.6,0,0,1-.76,1.89,2,2,0,0,1-1.74.76,2.81,2.81,0,0,1-1.08-.16,2.32,2.32,0,0,1-.75-.47,2.26,2.26,0,0,1-.58-1.06,5.94,5.94,0,0,1-.16-1.63V58.38h-1.85V58h1.85V55.06a3.51,3.51,0,0,0,.92-.08A3.78,3.78,0,0,0,143.48,54.77Z" transform="translate(0)"/><path class="cls-1" d="M152.3,57.74v8.32a1.39,1.39,0,0,0,.33,1.09,1.68,1.68,0,0,0,1.13.29v.4H149.1v-.4a1.67,1.67,0,0,0,1.12-.29,1.38,1.38,0,0,0,.34-1.09v-6a2.22,2.22,0,0,0-.31-1.28,1.38,1.38,0,0,0-1.15-.41V58c.41,0,.81.06,1.19.06a9.73,9.73,0,0,0,1.07-.06A5.22,5.22,0,0,0,152.3,57.74Zm-1-4.59a1.23,1.23,0,0,1,.86.37,1.17,1.17,0,0,1,.37.86,1.23,1.23,0,0,1-2.46,0,1.14,1.14,0,0,1,.37-.86A1.19,1.19,0,0,1,151.3,53.15Z" transform="translate(0)"/><path class="cls-1" d="M159.75,54.77V58h2.84v.39h-2.84v7.43a2,2,0,0,0,.32,1.27,1.14,1.14,0,0,0,.91.36,1.31,1.31,0,0,0,1-.47,4.09,4.09,0,0,0,.73-1.58l.38.09a4.6,4.6,0,0,1-.76,1.89,2,2,0,0,1-1.74.76,2.76,2.76,0,0,1-1.07-.16,2.32,2.32,0,0,1-.75-.47,2.28,2.28,0,0,1-.59-1.06,5.94,5.94,0,0,1-.16-1.63V58.38h-1.84V58H158V55.06a3.47,3.47,0,0,0,.92-.08A4,4,0,0,0,159.75,54.77Z" transform="translate(0)"/><path class="cls-1" d="M170,57.69a3.47,3.47,0,0,1,2.64,1,4.67,4.67,0,0,1,.95,3.2h-6.81v-.36h5a6.8,6.8,0,0,0-.16-1.74,2.91,2.91,0,0,0-.6-1.28A1.38,1.38,0,0,0,170,58a2,2,0,0,0-1.56.88,5.2,5.2,0,0,0-.82,2.81l.06.08a2.39,2.39,0,0,1-.06.63,2.66,2.66,0,0,0,0,.69,5.1,5.1,0,0,0,.43,2.25,3.37,3.37,0,0,0,1.1,1.43,2.38,2.38,0,0,0,1.41.49,3,3,0,0,0,1.6-.43,3.3,3.3,0,0,0,1.22-1.49l.39.15a4,4,0,0,1-.69,1.23,3.65,3.65,0,0,1-1.21,1,3.56,3.56,0,0,1-1.69.37,4.2,4.2,0,0,1-2.37-.63,4,4,0,0,1-1.52-1.76,5.88,5.88,0,0,1-.53-2.58,7,7,0,0,1,.54-2.91,4.23,4.23,0,0,1,1.52-1.88A4,4,0,0,1,170,57.69Z" transform="translate(0)"/><path class="cls-1" d="M186.42,52.81v14l-.51.43-.51.43-.52.44-.32-.13a4.86,4.86,0,0,0,.1-.55,5.42,5.42,0,0,0,0-.57V55.11a2.28,2.28,0,0,0-.3-1.27,1.4,1.4,0,0,0-1.16-.42V53c.41,0,.81.06,1.19.06a6.48,6.48,0,0,0,1.07-.07A4.61,4.61,0,0,0,186.42,52.81Zm3,4.88A3.24,3.24,0,0,1,192,59a6.29,6.29,0,0,1,1,3.93,6.38,6.38,0,0,1-.59,2.89,4,4,0,0,1-3.7,2.31,3.44,3.44,0,0,1-1.85-.54,3.24,3.24,0,0,1-1.33-1.63l.38.22a3,3,0,0,0,1.19,1.14,3,3,0,0,0,1.46.37,2.06,2.06,0,0,0,1.93-1.16,7.92,7.92,0,0,0,.64-3.6,11.85,11.85,0,0,0-.25-2.59,3.25,3.25,0,0,0-.77-1.55,1.86,1.86,0,0,0-1.32-.51,2.27,2.27,0,0,0-1.64.8,3.89,3.89,0,0,0-.93,2.33l-.23-.27a4.1,4.1,0,0,1,1.14-2.53A3.1,3.1,0,0,1,189.42,57.69Z" transform="translate(0)"/><path class="cls-1" d="M199,68a2.07,2.07,0,0,1-2.37-1.74,2,2,0,0,1,0-.55,2.12,2.12,0,0,1,.39-1.33,3.12,3.12,0,0,1,1-.87,9.34,9.34,0,0,1,1.29-.57l1.3-.47a4.33,4.33,0,0,0,1-.52.87.87,0,0,0,.39-.73V60a2.63,2.63,0,0,0-.24-1.23,1.27,1.27,0,0,0-.64-.57,3.07,3.07,0,0,0-.9-.14,5.47,5.47,0,0,0-1,.13,1.51,1.51,0,0,0-.87.56,1.19,1.19,0,0,1,.9,1.17,1,1,0,0,1-.31.76,1.06,1.06,0,0,1-.79.28.9.9,0,0,1-.81-.35,1.22,1.22,0,0,1-.26-.8,1.2,1.2,0,0,1,.25-.81,3.13,3.13,0,0,1,.63-.57,4.24,4.24,0,0,1,1.14-.53,5.31,5.31,0,0,1,1.59-.22,4.38,4.38,0,0,1,1.34.18,2.57,2.57,0,0,1,.92.53,2.18,2.18,0,0,1,.66,1.12,8.37,8.37,0,0,1,.15,1.58v5.34a1.32,1.32,0,0,0,.13.68.49.49,0,0,0,.47.23.89.89,0,0,0,.47-.12,2.63,2.63,0,0,0,.39-.29l.21.33a7.32,7.32,0,0,1-.77.51,2.06,2.06,0,0,1-1,.2,1.41,1.41,0,0,1-1.32-.52,2.08,2.08,0,0,1-.33-1.19,3.26,3.26,0,0,1-1.39,1.36A4,4,0,0,1,199,68Zm.84-.77a2.11,2.11,0,0,0,1.14-.34,3.18,3.18,0,0,0,1-1.12V62a2,2,0,0,1-.89.67c-.4.17-.82.35-1.25.55a3.25,3.25,0,0,0-1.1.8,2.07,2.07,0,0,0-.46,1.45,1.68,1.68,0,0,0,.44,1.32,1.44,1.44,0,0,0,1.08.43Z" transform="translate(0)"/><path class="cls-1" d="M211.36,57.69a3.12,3.12,0,0,1,1.31.25,4.17,4.17,0,0,1,.79.46c.42.34.68.11.77-.69h.44a10,10,0,0,1-.06,1.27c-.06.49,0,1.16,0,2h-.44a7.46,7.46,0,0,0-.39-1.38,2.9,2.9,0,0,0-.82-1.11,2.34,2.34,0,0,0-1.4-.43,1.75,1.75,0,0,0-1.13.38,1.33,1.33,0,0,0-.45,1.1,1.46,1.46,0,0,0,.35,1,3.91,3.91,0,0,0,.9.77l1.21.77a14.43,14.43,0,0,1,1.86,1.44,2.52,2.52,0,0,1,.77,1.92,2.35,2.35,0,0,1-.46,1.48,3,3,0,0,1-1.2.91,4.12,4.12,0,0,1-1.62.3,5.29,5.29,0,0,1-.8-.06,4.27,4.27,0,0,1-.72-.21,1.9,1.9,0,0,1-.39-.23l-.4-.28a.23.23,0,0,0-.31,0l0,0a1.16,1.16,0,0,0-.23.64h-.44c0-.41,0-.91.05-1.5s0-1.37,0-2.34H209a10,10,0,0,0,.39,1.88,2.47,2.47,0,0,0,.79,1.26,2.15,2.15,0,0,0,1.49.45,2,2,0,0,0,1.15-.4,1.68,1.68,0,0,0,.56-1.42,1.8,1.8,0,0,0-.61-1.39,14.39,14.39,0,0,0-1.56-1.13c-.46-.29-.89-.59-1.29-.88a4,4,0,0,1-1-1,2.31,2.31,0,0,1-.38-1.35,2.23,2.23,0,0,1,.4-1.41,2.32,2.32,0,0,1,1-.8A3.82,3.82,0,0,1,211.36,57.69Z" transform="translate(0)"/><path class="cls-1" d="M223.1,57.69a3.51,3.51,0,0,1,2.64,1,4.69,4.69,0,0,1,1,3.2H220v-.36h5a6.37,6.37,0,0,0-.15-1.74,3.27,3.27,0,0,0-.6-1.28,1.38,1.38,0,0,0-1.07-.48,2,2,0,0,0-1.56.88,5.12,5.12,0,0,0-.82,2.81l.06.08a3.36,3.36,0,0,0-.06.63v.69a5.42,5.42,0,0,0,.42,2.25,3.39,3.39,0,0,0,1.11,1.43,2.38,2.38,0,0,0,1.41.49,3,3,0,0,0,1.59-.43,3.16,3.16,0,0,0,1.23-1.49l.38.15a4,4,0,0,1-.69,1.23,3.6,3.6,0,0,1-2.9,1.34,4.2,4.2,0,0,1-2.37-.63,4,4,0,0,1-1.51-1.76,5.88,5.88,0,0,1-.53-2.58,7,7,0,0,1,.54-2.91A4.21,4.21,0,0,1,221,58.33,4.07,4.07,0,0,1,223.1,57.69Z" transform="translate(0)"/><path class="cls-1" d="M233.12,52.79V66.06a1.35,1.35,0,0,0,.34,1.09,1.64,1.64,0,0,0,1.12.29v.4h-4.66v-.4a1.69,1.69,0,0,0,1.13-.29,1.39,1.39,0,0,0,.33-1.09v-11a2.28,2.28,0,0,0-.3-1.27,1.4,1.4,0,0,0-1.16-.42V53c.41,0,.81.06,1.19.06a6.48,6.48,0,0,0,1.07-.07A4.48,4.48,0,0,0,233.12,52.79Z" transform="translate(0)"/><path class="cls-1" d="M240.67,57.74v8.32a1.39,1.39,0,0,0,.33,1.09,1.68,1.68,0,0,0,1.13.29v.4h-4.66v-.4a1.67,1.67,0,0,0,1.12-.29,1.38,1.38,0,0,0,.34-1.09v-6a2.22,2.22,0,0,0-.31-1.28,1.38,1.38,0,0,0-1.15-.41V58c.41,0,.81.06,1.19.06a9.73,9.73,0,0,0,1.07-.06A5.22,5.22,0,0,0,240.67,57.74Zm-1-4.59a1.23,1.23,0,0,1,.86.37,1.17,1.17,0,0,1,.37.86,1.25,1.25,0,0,1-1.23,1.23,1.19,1.19,0,0,1-.87-.36,1.22,1.22,0,0,1,0-1.73A1.26,1.26,0,0,1,239.67,53.15Z" transform="translate(0)"/><path class="cls-1" d="M251.48,57.69a3.42,3.42,0,0,1,1.22.19,2.45,2.45,0,0,1,.81.54,2.14,2.14,0,0,1,.52,1,6.75,6.75,0,0,1,.16,1.55V66.1a1.39,1.39,0,0,0,.33,1.09,1.68,1.68,0,0,0,1.13.29v.4h-4.46v-.4a1.31,1.31,0,0,0,1-.29,1.56,1.56,0,0,0,.29-1.09V60.55a5.85,5.85,0,0,0-.1-1.1,1.47,1.47,0,0,0-.43-.8,1.51,1.51,0,0,0-1-.31,2.35,2.35,0,0,0-1.95,1,4.12,4.12,0,0,0-.74,2.49v4.26a1.51,1.51,0,0,0,.29,1.09,1.3,1.3,0,0,0,1,.29v.4H245.1v-.4a1.67,1.67,0,0,0,1.12-.29,1.42,1.42,0,0,0,.34-1.09v-6a2.24,2.24,0,0,0-.31-1.28,1.41,1.41,0,0,0-1.15-.41V58c.41,0,.8.06,1.19.06a9.55,9.55,0,0,0,1.06-.06,5.19,5.19,0,0,0,.93-.21V60a3.28,3.28,0,0,1,1.4-1.81A3.73,3.73,0,0,1,251.48,57.69Z" transform="translate(0)"/><path class="cls-1" d="M263.08,57.69a3.51,3.51,0,0,1,2.64,1,4.69,4.69,0,0,1,1,3.2h-6.78v-.36h4.88a6.37,6.37,0,0,0-.15-1.74,3.27,3.27,0,0,0-.6-1.28A1.38,1.38,0,0,0,263,58a2,2,0,0,0-1.56.88,5.12,5.12,0,0,0-.82,2.81l.06.08a3.36,3.36,0,0,0-.06.63v.69a5.42,5.42,0,0,0,.42,2.25,3.39,3.39,0,0,0,1.11,1.43,2.38,2.38,0,0,0,1.41.49,3,3,0,0,0,1.59-.43,3.16,3.16,0,0,0,1.23-1.49l.38.15a4,4,0,0,1-.69,1.23,3.6,3.6,0,0,1-2.9,1.34,4.2,4.2,0,0,1-2.37-.63,4,4,0,0,1-1.51-1.76,5.88,5.88,0,0,1-.53-2.58,7.12,7.12,0,0,1,.53-2.91,4.29,4.29,0,0,1,1.52-1.88A4,4,0,0,1,263.08,57.69Z" transform="translate(0)"/><path class="cls-1" d="M85.51,4.1a19.33,19.33,0,0,0-3.87.4,12.17,12.17,0,0,0-3.58,1.29,7.84,7.84,0,0,0-2.65,2.37,6.13,6.13,0,0,0-1,3.65A7.79,7.79,0,0,0,74.69,14a11.26,11.26,0,0,0,.67,1.87,11,11,0,0,0,.76,1.44,6.75,6.75,0,0,0,.62.89,2.74,2.74,0,0,1,.23.36.88.88,0,0,1,.1.35.45.45,0,0,1-.17.36.82.82,0,0,1-.6.16A4.1,4.1,0,0,1,74.68,19a6.6,6.6,0,0,1-2-1.29A7.43,7.43,0,0,1,71,15.44a6.92,6.92,0,0,1-.69-3.2,7.89,7.89,0,0,1,.51-2.71,11.86,11.86,0,0,1,1.5-2.78,14.65,14.65,0,0,1,2.44-2.6A15.73,15.73,0,0,1,78.08,2a20.13,20.13,0,0,1,9-2,15.69,15.69,0,0,1,6.09,1.11,13,13,0,0,1,4.36,3,12.55,12.55,0,0,1,2.62,4.25,14.71,14.71,0,0,1,.88,5,14.67,14.67,0,0,1-1.09,5.78,12.1,12.1,0,0,1-3.13,4.41,14,14,0,0,1-5,2.8,20.6,20.6,0,0,1-6.65,1h-.6A1.94,1.94,0,0,1,84,27.3a1,1,0,0,1-.44-.2.54.54,0,0,1-.17-.45,1,1,0,0,1,.16-.54.54.54,0,0,1,.43-.28,17.76,17.76,0,0,0,5.56-1.21,10.16,10.16,0,0,0,3.62-2.42,8.8,8.8,0,0,0,2-3.4,14.29,14.29,0,0,0,.6-4.16,13.45,13.45,0,0,0-.8-4.82,8.85,8.85,0,0,0-2.17-3.26,8.6,8.6,0,0,0-3.23-1.84A13.39,13.39,0,0,0,85.51,4.1ZM82,8.17a2.2,2.2,0,0,1,.72-.91A1.5,1.5,0,0,1,84.23,7a.46.46,0,0,1,.33.41,2.41,2.41,0,0,1,0,.38.9.9,0,0,1-.09.44c-.3,1.45-.57,2.93-.8,4.43s-.44,3-.61,4.43-.31,2.85-.42,4.19-.19,2.58-.25,3.73-.11,2.15-.13,3,0,1.58,0,2.11v8.73a2,2,0,0,1,0,.35.92.92,0,0,1-.17.29.39.39,0,0,1-.32.13,1.29,1.29,0,0,1-.61-.13,2.81,2.81,0,0,1-.54-.29l-.5-.29a1.14,1.14,0,0,0-.47-.13.66.66,0,0,0-.47.18.56.56,0,0,1-.43.18.71.71,0,0,1-.49-.16.75.75,0,0,1-.25-.38,2,2,0,0,1-.09-.49V33.79c0-.88,0-1.8.09-2.77s.07-1.87.1-2.73.12-2.05.19-3.18.17-2.27.27-3.4.21-2.22.32-3.29.21-2,.31-2.92.18-1.62.25-2.24.14-1,.17-1.28c.12-.75.24-1.39.37-1.92A2.82,2.82,0,0,1,80.41,9a1.91,1.91,0,0,1,.44-.41,4.27,4.27,0,0,1,.51-.3A1.78,1.78,0,0,1,82,8.17Z" transform="translate(0)"/><path class="cls-1" d="M112.6,27.58c-.51,1.54-1,2.88-1.43,4a23.11,23.11,0,0,1-1.34,2.9,5.88,5.88,0,0,1-1.42,1.75,2.64,2.64,0,0,1-1.67.59,1.45,1.45,0,0,1-1.07-.41,3.68,3.68,0,0,1-.7-.92,4.41,4.41,0,0,1-.42-1c-.1-.31-.16-.52-.2-.62v-.16c0-.07,0-.1-.07-.1s-.07,0-.09.08l-.09.15a5,5,0,0,1-.41.67,8,8,0,0,1-.83,1,6.16,6.16,0,0,1-1.14.91,2.47,2.47,0,0,1-1.39.4,2,2,0,0,1-1.14-.38,3.53,3.53,0,0,1-1-1,5.43,5.43,0,0,1-.65-1.55A6.88,6.88,0,0,1,97.3,32a12,12,0,0,1,.7-4.19,14.35,14.35,0,0,1,3.92-5.62,12.14,12.14,0,0,1,1.68-1.24,8.71,8.71,0,0,1,1.57-.75,4,4,0,0,1,1.29-.26,2.23,2.23,0,0,1,.72.13,1.72,1.72,0,0,1,.64.43,2.58,2.58,0,0,1,.45.81,4.23,4.23,0,0,1,.17,1.22,7.09,7.09,0,0,1-.25,1.66,6.73,6.73,0,0,1-.71,1.68,4.65,4.65,0,0,1-1.17,1.29,2.52,2.52,0,0,1-1.56.51c-.36,0-.54-.13-.54-.41a4.88,4.88,0,0,1,.14-.92,5.59,5.59,0,0,0,.14-1.23v-.55a3.53,3.53,0,0,0-.13-.63,1.7,1.7,0,0,0-.28-.51.66.66,0,0,0-.49-.2,1.5,1.5,0,0,0-1.2.64,5.54,5.54,0,0,0-.86,1.56,10.15,10.15,0,0,0-.53,1.92,9.59,9.59,0,0,0-.18,1.68,6.83,6.83,0,0,0,.16,1.63,3.07,3.07,0,0,0,.41,1.05,1.39,1.39,0,0,0,.59.56,1.27,1.27,0,0,0,.69.17,2.2,2.2,0,0,0,1.51-.58,6.7,6.7,0,0,0,1.15-1.28c.33-.47.59-.89.81-1.28s.39-.57.52-.57.26.18.31.53a15.09,15.09,0,0,0,.33,1.9,7.91,7.91,0,0,0,.36,1.17,1.48,1.48,0,0,0,.37.58.54.54,0,0,0,.4.17,1.05,1.05,0,0,0,.77-.45,6.9,6.9,0,0,0,.77-1.21c.25-.52.52-1.11.79-1.8l.87-2.17c.19-.43.41-.64.67-.64s.38.15.38.46A1.37,1.37,0,0,1,112.6,27.58Z" transform="translate(0)"/><path class="cls-1" d="M123.31,27.58c-.55,1.57-1,2.94-1.47,4.1a21.66,21.66,0,0,1-1.32,2.9,5.68,5.68,0,0,1-1.44,1.75,3,3,0,0,1-1.84.57,2.84,2.84,0,0,1-1.31-.34,3.32,3.32,0,0,1-1.28-1.32,8.88,8.88,0,0,1-1-2.73,21.16,21.16,0,0,1-.38-4.57c0-.5,0-1.15.06-2s.09-1.72.15-2.71.14-2.06.22-3.18.18-2.24.28-3.37h-.46c-.92.11-1.59.2-2,.27a1.84,1.84,0,0,0-.77.25.31.31,0,0,0-.13.24v.26a.4.4,0,0,1-.08.2q-.06.09-.27.09a.87.87,0,0,1-.32-.06,1.28,1.28,0,0,1-.38-.21.93.93,0,0,1-.32-.36.92.92,0,0,1-.13-.52,1.52,1.52,0,0,1,.12-.59,2.93,2.93,0,0,1,.29-.59,7.21,7.21,0,0,1,.53-.74A4.86,4.86,0,0,1,111,14a8,8,0,0,1,1.42-.83,9.84,9.84,0,0,1,2-.61c.08-.72.17-1.35.27-1.91s.19-1,.29-1.48.2-.83.29-1.18.2-.67.3-1a3.88,3.88,0,0,1,.77-1.53c.3-.35.63-.72,1-1.11a4.36,4.36,0,0,1,1.09-.86,2.55,2.55,0,0,1,.67-.24.76.76,0,0,1,.43.14.67.67,0,0,1,.19.5,1.93,1.93,0,0,1,0,.34,1.84,1.84,0,0,1,0,.25,8.53,8.53,0,0,1-.24,1c-.11.48-.24,1.06-.39,1.75s-.29,1.47-.44,2.33-.29,1.78-.41,2.75a14,14,0,0,1,2.31.35l1.14.29a3.52,3.52,0,0,1,.59.28,1.37,1.37,0,0,1,.28.44.9.9,0,0,0,.25.33,1.23,1.23,0,0,0,.28.23l.24.23a.68.68,0,0,1,.1.36.91.91,0,0,1-.1.4.45.45,0,0,1-.23.24,2.26,2.26,0,0,1-.66.19c-.33.06-.72.12-1.18.18l-1.58.18-1.83.19c-.2,2.12-.4,4.17-.6,6.13a48.29,48.29,0,0,0-.29,5.24,12.92,12.92,0,0,0,.14,2.16,6.71,6.71,0,0,0,.42,1.67,3,3,0,0,0,.68,1.09,1.23,1.23,0,0,0,.91.39,1.14,1.14,0,0,0,.84-.43,5.7,5.7,0,0,0,.77-1.16,17.57,17.57,0,0,0,.78-1.77c.27-.68.55-1.43.86-2.25.15-.43.37-.64.66-.64s.41.15.41.46v.18A1.08,1.08,0,0,1,123.31,27.58Z" transform="translate(0)"/><path class="cls-1" d="M134,27.58c-.55,1.57-1,2.94-1.48,4.1a20.42,20.42,0,0,1-1.31,2.9,5.82,5.82,0,0,1-1.44,1.75,3,3,0,0,1-1.84.57,2.84,2.84,0,0,1-1.31-.34,3.19,3.19,0,0,1-1.28-1.32,8.88,8.88,0,0,1-1-2.73,20.56,20.56,0,0,1-.39-4.57c0-.5,0-1.15.07-2s.09-1.72.15-2.71.13-2.06.22-3.18.18-2.24.28-3.37h-.46c-.92.11-1.6.2-2,.27a1.71,1.71,0,0,0-.77.25.31.31,0,0,0-.13.24v.26a.6.6,0,0,1-.08.2q-.06.09-.27.09a.87.87,0,0,1-.32-.06,1.28,1.28,0,0,1-.38-.21.86.86,0,0,1-.32-.36.92.92,0,0,1-.13-.52,1.52,1.52,0,0,1,.12-.59,2.93,2.93,0,0,1,.29-.59,6,6,0,0,1,.58-.67,4.86,4.86,0,0,1,.92-.89,7.43,7.43,0,0,1,1.42-.83,9.84,9.84,0,0,1,2-.61c.08-.72.17-1.35.26-1.91s.2-1,.3-1.48.2-.83.29-1.18.2-.67.3-1a3.88,3.88,0,0,1,.77-1.53c.3-.35.63-.72,1-1.11a4.31,4.31,0,0,1,1.08-.86,2.62,2.62,0,0,1,.68-.24.76.76,0,0,1,.43.14.67.67,0,0,1,.19.5,1.93,1.93,0,0,1,0,.34.4.4,0,0,1-.05.25,8.59,8.59,0,0,0-.24,1c-.11.48-.24,1.06-.39,1.75s-.29,1.47-.45,2.33-.29,1.78-.4,2.75a14,14,0,0,1,2.31.35l1.14.29a2.88,2.88,0,0,1,.59.28,1.37,1.37,0,0,1,.28.44.9.9,0,0,0,.25.33,1,1,0,0,0,.28.23l.24.23a.68.68,0,0,1,.1.36.91.91,0,0,1-.1.4.45.45,0,0,1-.23.24,2.32,2.32,0,0,1-.67.19q-.48.09-1.17.18l-1.58.18-1.83.19c-.2,2.12-.4,4.17-.6,6.13a51,51,0,0,0-.3,5.24,12.93,12.93,0,0,0,.15,2.16,6.71,6.71,0,0,0,.42,1.67,3,3,0,0,0,.68,1.09,1.2,1.2,0,0,0,.91.39,1.14,1.14,0,0,0,.84-.43,5.7,5.7,0,0,0,.77-1.16c.26-.5.51-1.09.78-1.77l.86-2.25c.15-.43.37-.64.66-.64s.41.15.41.46v.18Z" transform="translate(0)"/><path class="cls-1" d="M152.15,27.43c-.34,1-.7,2-1.09,2.88a24.4,24.4,0,0,1-1.3,2.61,18.2,18.2,0,0,1-1.68,2.38,20.06,20.06,0,0,1-2.2,2.22c0,.82-.12,1.64-.21,2.48s-.18,1.66-.28,2.46a29.26,29.26,0,0,1-1,5.08A15.94,15.94,0,0,1,143,50.68a6.72,6.72,0,0,1-1.44,1.74,7.21,7.21,0,0,1-1.3.84,4.84,4.84,0,0,1-2.15.64,2,2,0,0,1-1.81-1.17,6.29,6.29,0,0,1-.65-3,9.28,9.28,0,0,1,.59-3.33,13.94,13.94,0,0,1,1.53-2.94,17.81,17.81,0,0,1,2.1-2.58q1.15-1.17,2.34-2.19c0-.65.09-1.25.11-1.82s.06-1,.09-1.43c.06-1,.09-2.07.11-3.19s0-2.15.07-3.11a34.49,34.49,0,0,1-1.17,3.74,13.38,13.38,0,0,1-1.19,2.36A3.83,3.83,0,0,1,139,36.41a2.68,2.68,0,0,1-1.35.36,2,2,0,0,1-1-.29,2.6,2.6,0,0,1-1-1.1,7.48,7.48,0,0,1-.73-2.26,19.25,19.25,0,0,1-.28-3.72c0-.62,0-1.24.06-1.88s.11-1.27.2-1.87.17-1.18.28-1.72a9,9,0,0,1,.36-1.42,1.13,1.13,0,0,1,.25-.47l.26-.3.22-.27a.26.26,0,0,1,.21-.11.31.31,0,0,1,.28.14.3.3,0,0,0,.29.14.82.82,0,0,0,.28-.11l.43-.27a3.47,3.47,0,0,1,.46-.27,1,1,0,0,1,.39-.12c.19,0,.28.16.28.46a2.8,2.8,0,0,1,0,.41,1.9,1.9,0,0,1-.09.54,13.81,13.81,0,0,0-.32,2.47c0,.86-.06,1.86-.06,3v2.12a11.24,11.24,0,0,0,.12,1.65,2.66,2.66,0,0,0,.32,1.07.63.63,0,0,0,.6.39c.3,0,.59-.22.86-.67a10.33,10.33,0,0,0,.75-1.7c.24-.69.47-1.46.69-2.32s.45-1.69.67-2.52.44-1.6.65-2.3a7.4,7.4,0,0,1,.68-1.68,2.42,2.42,0,0,1,.88-.8,2.35,2.35,0,0,1,1.07-.33,1.29,1.29,0,0,1,.43.07.75.75,0,0,1,.31.25,1.67,1.67,0,0,1,.19.57,8.39,8.39,0,0,1,.06,1v2.29c0,.83-.06,1.63-.09,2.41s-.07,1.47-.11,2.09-.06,1.05-.07,1.33-.08,1-.12,1.93-.1,1.93-.17,3.09A12.12,12.12,0,0,0,147.83,34a14,14,0,0,0,1.32-1.9c.4-.7.77-1.42,1.1-2.16s.68-1.59,1-2.48c.19-.46.44-.69.77-.69a.31.31,0,0,1,.35.28.17.17,0,0,1,0,.07.54.54,0,0,1,0,.18A1.27,1.27,0,0,1,152.15,27.43Zm-10.5,15.72a7.08,7.08,0,0,1,.16-1c.06-.38.09-.66.12-1a18.85,18.85,0,0,0-1.32,1.8,10.59,10.59,0,0,0-1,2.06,12.76,12.76,0,0,0-.66,2.4,14.19,14.19,0,0,0-.25,2.83,3.64,3.64,0,0,0,.14,1.23q.15.36.3.36c.17,0,.35-.16.53-.49a6,6,0,0,0,.53-1.25c.16-.51.32-1.09.47-1.73s.3-1.28.43-1.93.24-1.27.34-1.86S141.6,43.54,141.65,43.15Z" transform="translate(0)"/><path class="cls-1" d="M162.82,27.58c-.55,1.57-1,2.94-1.47,4.1a21.66,21.66,0,0,1-1.32,2.9,5.82,5.82,0,0,1-1.44,1.75,3,3,0,0,1-1.84.57,2.84,2.84,0,0,1-1.31-.34,3.32,3.32,0,0,1-1.28-1.32,8.88,8.88,0,0,1-1-2.73,21.37,21.37,0,0,1-.34-4.52c0-.5,0-1.15.06-2s.09-1.72.15-2.71.14-2.06.22-3.18.18-2.24.28-3.37h-.46c-.92.11-1.59.2-2,.27a1.84,1.84,0,0,0-.77.25.31.31,0,0,0-.13.24v.26a.4.4,0,0,1-.08.2q-.06.09-.27.09a.87.87,0,0,1-.32-.06,1.28,1.28,0,0,1-.38-.21.93.93,0,0,1-.32-.36.92.92,0,0,1-.13-.52,1.52,1.52,0,0,1,.12-.59,2.93,2.93,0,0,1,.29-.59,7.21,7.21,0,0,1,.53-.74,4.86,4.86,0,0,1,.92-.89,8,8,0,0,1,1.42-.83,9.84,9.84,0,0,1,2-.61c.08-.72.17-1.35.27-1.91s.19-1,.29-1.48.2-.83.29-1.18.2-.67.3-1a3.88,3.88,0,0,1,.77-1.53q.45-.52,1-1.11A4.31,4.31,0,0,1,158,3.57a2.62,2.62,0,0,1,.68-.24.76.76,0,0,1,.43.14.67.67,0,0,1,.19.5,1.93,1.93,0,0,1,0,.34,1.84,1.84,0,0,1-.05.25,8.53,8.53,0,0,1-.24,1c-.11.48-.24,1.06-.39,1.75s-.29,1.47-.44,2.33-.29,1.78-.41,2.75a14,14,0,0,1,2.31.35l1.14.29a3.52,3.52,0,0,1,.59.28,1.37,1.37,0,0,1,.28.44.9.9,0,0,0,.25.33,1,1,0,0,0,.28.23l.24.23a.68.68,0,0,1,.1.36.91.91,0,0,1-.1.4.45.45,0,0,1-.23.24,2.26,2.26,0,0,1-.66.19c-.33.06-.72.12-1.18.18l-1.58.18-1.83.19c-.2,2.12-.4,4.17-.6,6.13a48.29,48.29,0,0,0-.29,5.24,12.92,12.92,0,0,0,.14,2.16,6.71,6.71,0,0,0,.42,1.67,3,3,0,0,0,.68,1.09,1.23,1.23,0,0,0,.91.39,1.14,1.14,0,0,0,.84-.43,5.7,5.7,0,0,0,.77-1.16A17.57,17.57,0,0,0,161,29.6c.27-.68.55-1.43.86-2.25.15-.43.37-.64.66-.64s.41.15.41.46v.18C162.82,27.5,162.82,27.55,162.82,27.58Z" transform="translate(0)"/><path class="cls-1" d="M180.58,27.58c-.54,1.52-1,2.86-1.47,4a19.86,19.86,0,0,1-1.32,2.89,5.72,5.72,0,0,1-1.44,1.76,3,3,0,0,1-1.83.58,2.2,2.2,0,0,1-1.52-.52A3.44,3.44,0,0,1,172,35a6.74,6.74,0,0,1-.51-1.78,11.69,11.69,0,0,1-.15-1.87V30a7.36,7.36,0,0,1,0-1.15,38,38,0,0,1-1.14,3.81A13.86,13.86,0,0,1,169,35.15a4.12,4.12,0,0,1-1.24,1.32,2.6,2.6,0,0,1-1.37.4,2.29,2.29,0,0,1-1.09-.27,2.53,2.53,0,0,1-1-1,6.61,6.61,0,0,1-.75-2.16,17.42,17.42,0,0,1-.3-3.68V28.39c0-.54.05-1.1.1-1.69s.11-1.17.19-1.74a13.67,13.67,0,0,1,.3-1.55,3.07,3.07,0,0,1,.2-.74,1.37,1.37,0,0,1,.26-.56l.47-.47c.13-.13.23-.2.32-.2a.37.37,0,0,1,.29.14.31.31,0,0,0,.25.14.69.69,0,0,0,.29-.13l.48-.28.49-.28a1,1,0,0,1,.35-.13c.21,0,.31.19.31.57v.35a1.31,1.31,0,0,1-.07.49c-.16,1.09-.26,2.15-.32,3.16s-.09,2.11-.09,3.27V30.5a10.41,10.41,0,0,0,.12,1.37,2.17,2.17,0,0,0,.29.9.64.64,0,0,0,.56.32c.35,0,.66-.23,1-.68a9,9,0,0,0,.81-1.75c.25-.72.48-1.51.7-2.38s.44-1.72.64-2.55.42-1.59.63-2.29a6.65,6.65,0,0,1,.65-1.59,2.89,2.89,0,0,1,.89-.85,2,2,0,0,1,1-.33.89.89,0,0,1,.81.42,3.79,3.79,0,0,1,.24,1.63c0,.58,0,1.13,0,1.64s-.07,1-.1,1.59-.07,1.13-.1,1.75,0,1.32,0,2.09a12,12,0,0,0,.09,1.7,3.4,3.4,0,0,0,.24,1,1,1,0,0,0,.33.49.59.59,0,0,0,.36.13,1.14,1.14,0,0,0,.82-.39,4.82,4.82,0,0,0,.78-1.11,18,18,0,0,0,.82-1.78l.94-2.38a1.22,1.22,0,0,1,.3-.48.55.55,0,0,1,.39-.16.46.46,0,0,1,.27.11.54.54,0,0,1,.11.32A1.32,1.32,0,0,1,180.58,27.58Z" transform="translate(0)"/><path class="cls-1" d="M185.33,17.77a1.05,1.05,0,0,1,.48.16.59.59,0,0,1,.21.51,2.91,2.91,0,0,1-.16.88,5.11,5.11,0,0,0-.2.86c-.12.55-.23,1.15-.33,1.82s-.2,1.36-.29,2.1a7.77,7.77,0,0,1,2.4-2.73,4.28,4.28,0,0,1,2.21-.78,4,4,0,0,1,1.76.38A3.65,3.65,0,0,1,192.65,22a5,5,0,0,1,.73,1.62,9.33,9.33,0,0,1,.24,2.1,14.17,14.17,0,0,1-.71,4.71,11.48,11.48,0,0,1-1.75,3.23,6.89,6.89,0,0,0,2.46-1.48,9.78,9.78,0,0,0,1.31-1.62,18.42,18.42,0,0,0,1.59-3.17c.18-.43.42-.64.71-.64s.36.13.36.41a1.23,1.23,0,0,1-.08.38A18.26,18.26,0,0,1,196,30.91a11.92,11.92,0,0,1-1.65,2.15,6,6,0,0,1-1.64,1.2,6.67,6.67,0,0,1-1.47.54l-1.31.23a7.89,7.89,0,0,1-2.25,1.41,4.88,4.88,0,0,1-1.54.41,1.56,1.56,0,0,1-.65-.1.81.81,0,0,1-.45-.46,4.33,4.33,0,0,1-.27-.71,2,2,0,0,1-.14-.73.85.85,0,0,1,.58-.89,3.87,3.87,0,0,1,1.47-.23h.63a2,2,0,0,1,.67.08,8.67,8.67,0,0,0,.73-1.5,13.77,13.77,0,0,0,.59-1.92c.16-.69.29-1.43.39-2.2a23.2,23.2,0,0,0,.14-2.37c0-1.72-.42-2.59-1.26-2.59a1.8,1.8,0,0,0-1.21.49,5.19,5.19,0,0,0-1,1.25,10.31,10.31,0,0,0-.8,1.72q-.34.94-.6,1.89a16.6,16.6,0,0,0-.4,1.8,13.45,13.45,0,0,0-.17,1.38h-.05V33s0,.74-.08,2.22-.14,3.77-.33,6.84c-.08,1.49-.17,2.76-.24,3.82s-.15,2-.21,2.67-.12,1.32-.19,1.78-.14.84-.2,1.13a1.22,1.22,0,0,1-.38.6,2.49,2.49,0,0,1-.58.35c-.22.08-.42.15-.61.2a1.08,1.08,0,0,0-.43.21,9.09,9.09,0,0,1-1.12.84,1.46,1.46,0,0,1-.65.26.46.46,0,0,1-.36-.2.77.77,0,0,1-.15-.55,2.7,2.7,0,0,1,.08-.56c0-.27.12-.82.23-1.64,0-.36.1-.79.16-1.29s.14-1.11.22-1.82.18-1.53.28-2.46.22-2,.36-3.19c0-.18,0-.62.1-1.31s.12-1.55.2-2.55.16-2.12.25-3.34.19-2.47.3-3.73.2-2.5.3-3.7.21-2.29.31-3.25.2-1.76.3-2.4a3.88,3.88,0,0,1,.24-1.1,6.53,6.53,0,0,1,.68-1,6,6,0,0,1,1-.94c.12-.11.25-.22.39-.36a5.33,5.33,0,0,1,.42-.4,3.43,3.43,0,0,1,.41-.32A.78.78,0,0,1,185.33,17.77Z" transform="translate(0)"/><g id="Tup"><path class="cls-2" d="M4.63,49.35,6.51,66.08a3.68,3.68,0,0,0,3.67,3.28H58a.54.54,0,0,0,.52-.46l2.2-19.55Z" transform="translate(0)"/><path class="cls-2" d="M7.82,27.36,9.49,42.21a3.25,3.25,0,0,0,3.25,2.9H52.6a3.28,3.28,0,0,0,3.25-2.9l1.67-14.85Z" transform="translate(0)"/><path class="cls-2" d="M10.59,8l1.48,13.17A2.9,2.9,0,0,0,15,23.74H50.35a2.92,2.92,0,0,0,2.89-2.58L54.72,8Z" transform="translate(0)"/><path class="cls-3" d="M55.51,49.35,53.31,68.9a.51.51,0,0,1-.52.46H58a.54.54,0,0,0,.52-.46l2.2-19.55Z" transform="translate(0)"/><path class="cls-3" d="M52.35,27.36,50.68,42.21a3.28,3.28,0,0,1-3.25,2.9H52.6a3.28,3.28,0,0,0,3.25-2.9l1.67-14.85Z" transform="translate(0)"/><path class="cls-3" d="M49.55,8l-1.48,13.2a2.92,2.92,0,0,1-2.89,2.58h5.17a2.92,2.92,0,0,0,2.89-2.58L54.72,8Z" transform="translate(0)"/><path class="cls-4" d="M61.53,50.93H3.82a2.91,2.91,0,0,1,0-5.82H61.53a2.91,2.91,0,0,1,0,5.82Z" transform="translate(0)"/><path class="cls-4" d="M58.28,29H7a2.59,2.59,0,0,1,0-5.17H58.28a2.59,2.59,0,0,1,0,5.17Z" transform="translate(0)"/><path class="cls-4" d="M55.39,9.2H9.92a2.29,2.29,0,0,1,0-4.58H55.39a2.29,2.29,0,0,1,0,4.58Z" transform="translate(0)"/><path class="cls-5" d="M61.53,45.11H56.36a2.91,2.91,0,0,1,0,5.82h5.17a2.91,2.91,0,0,0,0-5.82Z" transform="translate(0)"/><path class="cls-5" d="M58.28,23.77H53.11a2.59,2.59,0,0,1,0,5.17h5.17a2.59,2.59,0,0,0,0-5.17Z" transform="translate(0)"/><path class="cls-5" d="M55.39,4.62H50.22a2.29,2.29,0,0,1,0,4.58h5.17a2.29,2.29,0,0,0,0-4.58Z" transform="translate(0)"/><path class="cls-6" d="M61.53,44.13H56.18a4.41,4.41,0,0,0,.64-1.81l1.4-12.41h.06a3.56,3.56,0,0,0,0-7.11H53.72a4,4,0,0,0,.49-1.5l.28-2.53v-.41L55,13.85l.11-1,.3-2.72a3.27,3.27,0,0,0-.07-6.53H9.92a3.27,3.27,0,0,0-.07,6.53L11.1,21.26a3.64,3.64,0,0,0,.49,1.5H7a3.56,3.56,0,1,0-.38,7.11h.44l1.4,12.41a4,4,0,0,0,.64,1.81H3.82A3.89,3.89,0,1,0,4,51.87L5.58,66.16a4.67,4.67,0,0,0,4.64,4.14h45a4.65,4.65,0,0,0,4.63-4.14l1.61-14.29a3.89,3.89,0,1,0,.16-7.78ZM9.92,8.22a1.31,1.31,0,1,1,0-2.62H55.39a1.31,1.31,0,0,1,0,2.62Zm43.57,2-.29,2.63-.07.61v.21l-.51,4.51,0,.46-.29,2.48a1.91,1.91,0,0,1-1.91,1.71H15A1.9,1.9,0,0,1,13,21.12L11.82,10.18ZM7,28a1.61,1.61,0,0,1,0-3.21H58.28a1.61,1.61,0,0,1,0,3.21Zm2,2H56.25L54.88,42.09a2.29,2.29,0,0,1-2.28,2H12.71a2.27,2.27,0,0,1-2.28-2ZM57.82,66a2.69,2.69,0,0,1-2.69,2.41H10.18A2.68,2.68,0,0,1,7.49,66L5.9,51.93H59.41Zm3.71-16H3.82a1.93,1.93,0,0,1,0-3.86H61.53a1.93,1.93,0,0,1,0,3.86Z" transform="translate(0)"/></g></svg>