<?xml version="1.0" encoding="utf-8"?>
<!-- Generator: Adobe Illustrator 24.0.2, SVG Export Plug-In . SVG Version: 6.00 Build 0)  -->
<svg version="1.1" id="Layer_1" xmlns="http://www.w3.org/2000/svg" xmlns:xlink="http://www.w3.org/1999/xlink" x="0px" y="0px"
	 viewBox="0 0 512 512" style="enable-background:new 0 0 512 512;" xml:space="preserve">
<style type="text/css">
	.st0{fill:#FFFFFF;}
</style>
<g>
	<g>
		<path class="st0" d="M438.1,0H91.8C66.5,0,46,20.5,46,45.8v420.4c0,25.2,20.5,45.8,45.8,45.8h346.3c15.4,0,27.9-12.5,27.9-27.9
			V27.9C466,12.5,453.5,0,438.1,0L438.1,0z M66,466.2c0-14.2,11.6-25.8,25.8-25.8H406V492H91.8C77.6,492,66,480.4,66,466.2L66,466.2
			z M446,484.1c0,4.4-3.5,7.9-7.9,7.9H426v-51.6h12.1c2.7,0,5.4-0.4,7.9-1.1V484.1z M446,412.5c0,4.4-3.5,7.9-7.9,7.9H106V265.2
			c0-5.5-4.5-10-10-10s-10,4.5-10,10v155.6c-7.3,0.9-14.2,3.6-20,7.6V45.8c0-12.2,8.6-22.5,20-25.1v154.6c0,5.5,4.5,10,10,10
			s10-4.5,10-10V20h332.1c4.4,0,7.9,3.5,7.9,7.9V412.5z"/>
		<path class="st0" d="M346.9,107.9c-7.6,0-15,1.4-21.9,4.2c-10.9-16.1-29.1-26-49-26s-38.1,9.9-49,26c-6.9-2.8-14.4-4.2-21.9-4.2
			c-32.6,0-59.1,26.5-59.1,59.1c0,25,15.3,46.8,38.2,55.3v116.7c0,8.5,6.9,15.5,15.5,15.5h152.7c8.5,0,15.5-6.9,15.5-15.5V222.2
			c22.8-8.5,38.2-30.3,38.2-55.3C406,134.4,379.5,107.9,346.9,107.9z M204.2,334.4v-20h143.6v20H204.2z M355.6,205.1
			c-4.6,1-7.8,5.1-7.8,9.8v79.6H204.2v-79.6c0-4.7-3.2-8.7-7.8-9.8c-17.9-4.1-30.4-19.7-30.4-38.1c0-21.6,17.5-39.1,39.1-39.1
			c7.3,0,14.5,2,20.7,5.9c2.5,1.5,5.5,1.9,8.2,1.1c2.8-0.9,5-2.9,6.2-5.5c6.3-14.2,20.3-23.3,35.8-23.3s29.5,9.1,35.8,23.3
			c1.2,2.7,3.4,4.7,6.2,5.5c2.8,0.9,5.8,0.5,8.2-1.1c6.2-3.9,13.3-5.9,20.7-5.9c21.6,0,39.1,17.5,39.1,39.1
			C386,185.3,373.5,201,355.6,205.1z"/>
		<path class="st0" d="M96,210.2c-5.5,0-10,4.5-10,10s4.5,10,10,10s10-4.5,10-10v0C106,214.7,101.5,210.2,96,210.2z"/>
	</g>
</g>
</svg>
