<svg id="Capa_1" enable-background="new 0 0 512.042 512.042" height="512" viewBox="0 0 512.042 512.042" width="512" xmlns="http://www.w3.org/2000/svg"><g><g><g><path d="m300.65 157.799c-1.324 2.137-2.032 4.655-1.957 7.29.15 5.317 3.454 9.983 8.418 11.89l62.628 24.05c1.529.588 3.122.88 4.712.88 1.814 0 3.625-.381 5.333-1.141 3.204-1.426 5.661-4.014 6.917-7.288l24.144-62.87c1.894-4.932.661-10.487-3.141-14.153-1.923-1.855-4.304-3.036-6.817-3.483l-30.469-60.661c-7.313-14.557-21.975-23.6-38.264-23.6h-141.968c-15.717 0-30.138 8.582-37.635 22.396l-47.37 87.287c-4.971 9.158-1.644 20.799 7.416 25.949l74.172 42.159c2.998 1.705 6.265 2.514 9.49 2.514 6.709 0 13.238-3.502 16.786-9.739l22.524-39.59c2.048-3.6.79-8.179-2.811-10.228-3.6-2.048-8.179-.791-10.228 2.811l-22.523 39.59c-1.165 2.047-3.779 2.767-5.827 1.602l-74.172-42.16c-2.008-1.142-2.746-3.722-1.644-5.753l47.37-87.288c4.871-8.975 14.24-14.55 24.451-14.55h43.22l25.895 43.932-19.008 33.41c-2.048 3.6-.79 8.179 2.811 10.228 1.17.666 2.444.982 3.702.982 2.608 0 5.144-1.363 6.526-3.793l14.751-25.928zm31.504-114.086c10.583 0 20.109 5.875 24.86 15.333l32.671 65.045c1.201 2.392 3.519 3.874 6.02 4.104l-22.335 58.162-57.551-22.101c.694-.779 1.226-1.702 1.548-2.718.646-2.033.396-4.244-.687-6.081l-65.863-111.744z"/><path d="m222.886 356.992h-45.754c-4.142 0-7.5 3.358-7.5 7.5s3.358 7.5 7.5 7.5h45.754c2.356 0 4.273 1.917 4.273 4.273v86.507c0 2.356-1.917 4.273-4.273 4.273h-113.011c-10.194 0-19.555-5.561-24.431-14.512l-19.781-36.317 26.475-44.224h49.067c4.142 0 7.5-3.358 7.5-7.5s-3.358-7.5-7.5-7.5h-40.087l32.769-54.736c2.342.022 4.758-.576 6.907-1.827 4.697-2.733 7.27-7.979 6.554-13.364l-8.708-65.541c-.975-7.332-7.731-12.507-15.064-11.53l-65.793 8.742c-5.112.679-9.305 4.133-10.942 9.015-.883 2.632-.933 5.375-.224 7.908l-38.94 56.123c-9.286 13.385-10.214 30.586-2.422 44.891l67.017 123.036c7.505 13.778 21.914 22.337 37.604 22.337h113.011c10.627 0 19.273-8.646 19.273-19.273v-86.507c-.001-10.628-8.647-19.274-19.274-19.274zm-204.458-27.494c-5.062-9.294-4.459-20.47 1.573-29.166l41.523-59.848c1.506-2.171 1.723-4.899.74-7.212l61.715-8.2 8.12 61.113c-1.016-.237-2.082-.262-3.129-.06-2.094.405-3.916 1.682-5.011 3.511l-66.625 111.29z"/><path d="m504.458 287.293-56.799-82.3c-5.663-8.204-16.862-10.729-25.495-5.746l-74.02 42.714c-4.584 2.645-7.91 7.117-9.125 12.268s-.238 10.637 2.68 15.052l62.609 94.725h-66.928c-1.516-1.55-3.438-2.713-5.606-3.32-4.393-1.23-8.947-.035-12.183 3.202l-48.95 48.95c-2.361 2.361-3.661 5.5-3.661 8.839s1.3 6.478 3.661 8.839l49.139 49.138c2.396 2.396 5.523 3.676 8.771 3.676 1.098 0 2.209-.146 3.311-.445 2.167-.587 4.097-1.732 5.626-3.267h68.221c16.217 0 30.85-8.984 38.187-23.446l63.51-125.182c7.108-14.019 5.979-30.762-2.948-43.697zm-10.432 36.908-42.578 83.924-.588-.889c-2.284-3.456-6.938-4.406-10.392-2.122-3.456 2.284-4.406 6.937-2.122 10.392l5.293 8.009-13.124 25.868c-4.767 9.396-14.273 15.233-24.81 15.233h-72.262c-2.041 0-3.927.824-5.298 2.191l-45.133-45.132 44.913-44.912c1.375 1.397 3.281 2.242 5.349 2.242h80.946l4.337 6.563c2.284 3.456 6.937 4.405 10.392 2.122 3.456-2.284 4.406-6.937 2.122-10.392l-76.86-116.288c-.886-1.34-.752-2.667-.594-3.337.158-.671.631-1.917 2.023-2.72l74.02-42.714c1.916-1.105 4.397-.545 5.653 1.274l56.799 82.3c5.801 8.404 6.534 19.282 1.914 28.388z"/></g></g></g></svg>