<svg id="icons" enable-background="new 0 0 64 64" height="512" viewBox="0 0 64 64" width="512" xmlns="http://www.w3.org/2000/svg"><path d="m7.943 54.644c-.008.008-.01.018-.017.025-.046.048-.075.108-.11.166s-.076.111-.1.173c-.003.01-.012.017-.015.026-.016.046-.009.092-.017.138-.014.073-.03.145-.027.219.003.063.021.121.035.183.015.063.025.126.053.187.029.065.074.12.117.178.029.039.045.085.08.12.008.008.018.01.025.018.048.045.108.073.165.108.058.036.111.077.174.101.01.003.017.012.026.015l7.426 2.476c.002.001.004 0 .005.001.1.032.204.051.312.051s.212-.019.312-.051c.002-.001.003 0 .005-.001.009-.003.015-.011.023-.014.104-.037.197-.093.282-.162.032-.025.058-.054.085-.082.055-.056.102-.116.143-.185.022-.039.043-.076.061-.117.012-.025.029-.046.038-.072.013-.038.006-.076.014-.114.015-.067.025-.132.025-.202s-.011-.135-.025-.202c-.008-.038-.001-.076-.014-.114l-2.476-7.425c-.003-.01-.012-.017-.015-.026-.022-.062-.063-.115-.1-.173-.035-.058-.064-.118-.11-.166-.007-.008-.009-.018-.017-.025-.034-.034-.078-.049-.115-.076-.06-.045-.115-.092-.184-.122-.059-.026-.119-.036-.181-.051-.063-.015-.122-.033-.187-.036-.075-.003-.146.014-.221.027-.046.008-.091.001-.137.017-.01.003-.017.012-.026.015-.063.023-.116.064-.174.101-.057.035-.117.063-.164.108-.008.008-.019.01-.026.018l-.678.678c-9.827-10.575-9.603-27.169.688-37.46 6.774-6.774 16.736-9.452 26.006-7.01.023.008.04.025.063.031.215.058.434.086.65.086.434 0 .86-.113 1.245-.334.58-.334.994-.873 1.165-1.518.173-.646.085-1.32-.248-1.898-.301-.521-.773-.897-1.335-1.096-.058-.027-.107-.066-.171-.084-11.011-2.948-22.855.23-30.907 8.282-6.044 6.044-9.372 14.079-9.372 22.627-.001 8.215 3.08 15.95 8.683 21.904zm5.221-2.392 1.331 3.993-3.994-1.331zm-11.167-20.248c0-8.014 3.12-15.548 8.786-21.214 7.528-7.527 18.592-10.508 28.897-7.788.025.009.045.028.071.035.129.035.236.117.302.231.067.116.085.252.049.384-.045.172-.164.262-.23.3-.104.06-.223.073-.34.053-.014-.005-.024-.015-.038-.019-9.979-2.658-20.71.218-28.004 7.512-11.069 11.069-11.294 28.933-.688 40.287l-.708.708c-5.225-5.576-8.097-12.809-8.097-20.489z"/><path d="m55.32 10.094.737-.737c.014-.014.019-.032.031-.047.057-.063.103-.136.143-.215.018-.034.039-.063.052-.099.004-.011.012-.02.016-.03.016-.046.009-.092.017-.138.014-.073.03-.145.027-.219-.003-.063-.021-.121-.035-.183-.015-.063-.025-.126-.053-.187-.029-.065-.074-.12-.117-.178-.029-.039-.045-.085-.08-.12-.008-.008-.019-.01-.026-.018-.047-.045-.107-.073-.164-.108-.058-.036-.111-.077-.174-.101-.01-.003-.017-.012-.026-.015l-7.426-2.475c-.036-.012-.071-.006-.107-.014-.069-.015-.137-.026-.209-.025-.072-.001-.14.011-.208.025-.036.008-.072.002-.108.014-.021.007-.036.023-.057.032-.067.027-.127.065-.188.107-.049.034-.097.065-.138.106-.045.045-.079.097-.115.15-.039.057-.074.111-.101.175-.009.022-.026.038-.034.061-.013.038-.006.076-.014.114-.015.067-.025.132-.025.202s.011.135.025.202c.008.038.001.076.014.114l2.476 7.425c.004.011.012.02.016.03.013.035.034.064.052.099.04.079.086.151.143.215.013.015.018.033.031.047.016.016.037.021.054.035.065.059.137.104.216.144.032.016.062.035.095.048.109.04.224.066.343.066.104 0 .211-.017.316-.052.01-.003.017-.012.026-.015.063-.023.116-.064.174-.1.057-.036.117-.064.165-.109.008-.008.018-.01.025-.018l.677-.677c9.827 10.574 9.602 27.17-.688 37.46-6.772 6.772-16.73 9.451-25.998 7.011-.025-.009-.045-.028-.071-.035-1.341-.352-2.708.441-3.061 1.769-.173.646-.085 1.321.25 1.899.3.519.771.894 1.33 1.092.058.028.108.068.174.086 2.716.726 5.481 1.078 8.229 1.078 8.396 0 16.615-3.298 22.682-9.364 6.044-6.044 9.372-14.079 9.372-22.627-.001-8.211-3.082-15.946-8.685-21.9zm-4.483 1.655-1.331-3.994 3.994 1.331zm2.38 41.462c-7.528 7.527-18.593 10.506-28.895 7.789-.025-.01-.045-.029-.072-.036-.129-.035-.236-.117-.303-.231-.067-.115-.085-.251-.049-.383.066-.25.315-.398.57-.354.014.004.023.015.037.019 2.459.655 4.962.975 7.449.975 7.608 0 15.059-2.988 20.555-8.485 11.07-11.07 11.295-28.933.688-40.288l.708-.708c5.225 5.577 8.097 12.81 8.097 20.489.001 8.013-3.119 15.547-8.785 21.213z"/><path d="m47.995 45v-23.005c0-.13-.026-.26-.077-.382-.051-.123-.124-.234-.217-.326l-4-4.001c-.092-.093-.203-.166-.326-.217-.122-.051-.252-.077-.382-.077h-21.997c-.13 0-.26.026-.382.077-.123.051-.234.124-.326.217l-3.999 4.001c-.093.092-.166.203-.217.326-.051.122-.077.252-.077.382v23.005c0 .553.447 1 1 1h30c.553 0 1-.447 1-1zm-5.416-26.008 2.002 2.003h-8.805l-.5-2.003zm-11.807 0h2.443l.5 2.003h-3.452zm-.777 4.003h4.001v2.621l-1.702-.564c-.204-.068-.427-.067-.633.001l-1.666.559zm-8.585-4.003h7.3l-.509 2.003h-8.793zm24.585 25.008h-28v-21.005h10v4.006c0 .073.026.138.042.207.008.037.001.074.014.111.003.01.011.017.014.026.02.052.048.096.075.143.032.058.066.112.108.161.034.039.069.072.108.105.054.046.111.083.173.116.041.021.078.044.121.061.105.039.216.064.331.066.005 0 .009.003.014.003h.002s.001 0 .002 0c.105 0 .213-.017.318-.052l2.664-.895 2.7.896c.051.017.101.01.151.018.056.01.105.033.163.033.016 0 .027-.008.043-.009.066-.003.127-.022.191-.038.063-.016.128-.025.186-.053.055-.024.098-.064.146-.099.056-.039.113-.073.16-.123.039-.041.063-.093.096-.142.04-.061.081-.119.107-.188.005-.013.016-.021.02-.034.018-.053.011-.104.02-.157.009-.054.031-.102.031-.157v-4.006h9.999v21.006z"/><path d="m28.996 36.999h-8c-.553 0-1 .447-1 1s.447 1 1 1h8c.553 0 1-.447 1-1s-.447-1-1-1z"/><path d="m24.996 39.999h-4c-.553 0-1 .447-1 1s.447 1 1 1h4c.553 0 1-.447 1-1s-.447-1-1-1z"/><path d="m32.994 37.999v3c0 .553.447 1 1 1h3c.553 0 1-.447 1-1v-3c0-.553-.447-1-1-1h-3c-.553 0-1 .447-1 1zm2 1h1v1h-1z"/><path d="m40 41.999h3c.553 0 1-.447 1-1v-3c0-.553-.447-1-1-1h-3c-.553 0-1 .447-1 1v3c0 .553.447 1 1 1zm1-3h1v1h-1z"/></svg>